<?xml version="1.0" encoding="utf-8"?>
<!-- Generator: Adobe Illustrator 26.1.0, SVG Export Plug-In . SVG Version: 6.00 Build 0)  -->
<svg version="1.1" id="Layer_1" xmlns="http://www.w3.org/2000/svg" xmlns:xlink="http://www.w3.org/1999/xlink" x="0px" y="0px"
	 viewBox="0 0 162.17 43.91" style="enable-background:new 0 0 162.17 43.91;" xml:space="preserve">
<style type="text/css">
	.st0{fill:#FAA31A;}
</style>
<g>
	<path class="st0" d="M26.76,38.77c0,0.72,0,1.44,0,2.21c0.31,0.01,0.59,0.03,0.91,0.04c0,0.24,0,0.48,0,0.74
		c-6.91,0-13.81,0-20.75,0c0-0.24,0-0.47,0-0.76c0.34,0,0.67,0,1.06,0c0-0.74,0.02-1.42-0.02-2.09c0-0.1-0.23-0.23-0.37-0.26
		c-1.68-0.36-3.11-1.13-4.2-2.49c-0.85-1.07-1.23-2.31-1.23-3.68c0.01-5.62-0.03-11.24,0.02-16.86c0.02-2,1.07-3.55,2.73-4.59
		c0.81-0.51,1.77-0.79,2.68-1.1C7.91,9.83,8,9.73,8,9.44C7.99,7.39,8,5.33,7.98,3.28c0-0.16-0.15-0.31-0.22-0.47
		C7.7,2.68,7.57,2.51,7.6,2.41C7.64,2.3,7.83,2.23,7.97,2.17c0.08-0.03,0.19-0.01,0.29-0.01c6.11,0,12.22,0,18.33,0
		c0.13,0,0.28-0.03,0.39,0.01c0.13,0.05,0.33,0.18,0.33,0.27c0,0.14-0.14,0.37-0.25,0.38c-0.3,0.04-0.31,0.22-0.31,0.45
		c0,2.07,0.01,4.14-0.01,6.21c0,0.3,0.12,0.37,0.39,0.43c2.13,0.44,3.83,1.51,4.87,3.48c0.37,0.71,0.56,1.48,0.56,2.3
		c-0.01,5.52-0.04,11.05,0.02,16.57c0.02,1.89-0.58,3.44-1.96,4.7c-0.99,0.9-2.17,1.42-3.47,1.68c-0.1,0.02-0.19,0.04-0.29,0.06
		C26.83,38.71,26.8,38.74,26.76,38.77z M15.98,6.11c0.2-0.04,0.34-0.07,0.49-0.1c0-0.17,0-0.33,0-0.52c-0.26,0-0.49,0-0.71,0
		c-0.32,0-0.55-0.11-0.56-0.47c-0.01-0.36,0.22-0.48,0.54-0.48c1.09,0,2.18,0,3.27,0c0.32,0,0.57,0.14,0.57,0.47
		c0,0.33-0.24,0.47-0.56,0.47c-0.31,0-0.61,0-0.94,0c0,0.21,0,0.36,0,0.52c0.18,0.04,0.33,0.07,0.48,0.1
		c0.03,0.19,0.05,0.34,0.08,0.49c0.96,0.17,1.16,0.11,1.34-0.41c0.44,0,0.9,0,1.35,0c0.06,0,0.12,0.02,0.19,0.03
		c0,0.93,0,1.85,0,2.76c-0.56,0-1.07,0-1.58,0c-0.11-0.55-0.44-0.65-1.34-0.41c0.01,0.14,0.02,0.29,0.03,0.43
		c0.28,0.02,0.5,0.03,0.75,0.05c0.02,0.25,0.04,0.47,0.07,0.71c0.93,0,1.85,0.07,2.75-0.02c1.1-0.1,1.87-1.01,1.92-2.12
		c0.02-0.54,0.02-1.08,0-1.61c-0.05-1.18-0.98-2.08-2.15-2.09c-3.09-0.01-6.19-0.01-9.28,0c-1.24,0-2.2,0.9-2.29,2.14
		c-0.04,0.52-0.03,1.04,0,1.56c0.09,1.23,1.05,2.13,2.29,2.15c0.54,0.01,1.07,0,1.61,0c0.79,0,0.79,0,0.95-0.74
		c0.23-0.02,0.46-0.04,0.73-0.06C15.98,8.02,15.98,7.08,15.98,6.11z M19.48,39.25C19.48,39.25,19.48,39.25,19.48,39.25
		c-0.21,0-0.45-0.05-0.63,0.02c-0.17,0.07-0.4,0.29-0.39,0.43c0.01,0.18,0.22,0.45,0.38,0.48c0.39,0.07,0.81,0.03,1.21,0.02
		c0.3,0,0.43-0.18,0.43-0.47c0-0.29-0.13-0.46-0.43-0.48C19.87,39.24,19.68,39.25,19.48,39.25z M10.72,40.2c0.19,0,0.39-0.01,0.58,0
		c0.36,0.02,0.46-0.22,0.46-0.49c0-0.27-0.13-0.46-0.45-0.46c-0.37,0.01-0.75,0-1.12,0c-0.3,0-0.45,0.15-0.45,0.45
		c0,0.3,0.1,0.51,0.45,0.5C10.36,40.19,10.54,40.2,10.72,40.2z M23.88,40.2c0.19,0,0.39,0,0.58,0c0.32,0.01,0.43-0.18,0.43-0.46
		c0.01-0.28-0.09-0.48-0.41-0.49c-0.39-0.01-0.78,0-1.16,0c-0.31,0-0.44,0.19-0.44,0.46c0,0.28,0.1,0.51,0.46,0.49
		C23.52,40.19,23.7,40.2,23.88,40.2z M15.1,40.11c0.18,0,0.38,0.05,0.53-0.01c0.17-0.08,0.42-0.26,0.41-0.4
		c0-0.15-0.23-0.4-0.39-0.43c-0.38-0.06-0.78-0.06-1.16,0.01c-0.15,0.03-0.34,0.28-0.35,0.45c-0.01,0.12,0.22,0.31,0.38,0.37
		C14.69,40.16,14.91,40.11,15.1,40.11z"/>
	<g>
		<path class="st0" d="M68.75,22.81V10.57h5.9c1.14,0,2.13,0.19,2.97,0.56c0.83,0.37,1.48,0.91,1.93,1.6
			c0.45,0.69,0.68,1.51,0.68,2.46s-0.23,1.76-0.68,2.45c-0.46,0.69-1.1,1.22-1.93,1.6c-0.83,0.38-1.82,0.57-2.97,0.57h-3.6
			l1.84-1.77v4.78H68.75z M72.88,18.49l-1.84-1.87h3.34c0.57,0,0.99-0.13,1.27-0.38c0.27-0.26,0.41-0.61,0.41-1.05
			c0-0.44-0.14-0.79-0.41-1.05c-0.27-0.26-0.7-0.38-1.27-0.38h-3.34l1.84-1.87V18.49z"/>
		<path class="st0" d="M81.58,22.81V10.57h5.9c1.14,0,2.13,0.19,2.97,0.56c0.83,0.37,1.48,0.91,1.93,1.6
			c0.45,0.69,0.68,1.51,0.68,2.46s-0.23,1.76-0.68,2.44c-0.46,0.68-1.1,1.2-1.93,1.57c-0.83,0.36-1.82,0.54-2.97,0.54h-3.6l1.84-1.7
			v4.78H81.58z M85.7,18.49l-1.84-1.87h3.34c0.57,0,0.99-0.13,1.27-0.38c0.27-0.26,0.41-0.61,0.41-1.05c0-0.44-0.14-0.79-0.41-1.05
			c-0.27-0.26-0.7-0.38-1.27-0.38h-3.34l1.84-1.87V18.49z M88.91,22.81l-3.01-4.46h4.37l3.04,4.46H88.91z"/>
		<path class="st0" d="M101.05,23.09c-1,0-1.93-0.16-2.77-0.47c-0.85-0.32-1.58-0.76-2.2-1.34c-0.62-0.58-1.1-1.26-1.44-2.04
			c-0.34-0.78-0.52-1.63-0.52-2.55c0-0.93,0.17-1.79,0.52-2.56c0.34-0.78,0.83-1.45,1.44-2.03c0.62-0.58,1.35-1.02,2.2-1.34
			c0.85-0.32,1.76-0.47,2.75-0.47c1,0,1.92,0.16,2.76,0.47c0.84,0.31,1.57,0.76,2.19,1.34c0.62,0.58,1.1,1.25,1.44,2.03
			c0.34,0.78,0.52,1.63,0.52,2.56c0,0.92-0.17,1.77-0.52,2.55c-0.34,0.78-0.83,1.46-1.44,2.04c-0.62,0.58-1.35,1.02-2.19,1.34
			C102.95,22.94,102.04,23.09,101.05,23.09z M101.03,19.75c0.38,0,0.74-0.07,1.08-0.21c0.33-0.14,0.62-0.34,0.87-0.6
			c0.25-0.26,0.45-0.58,0.59-0.96c0.14-0.38,0.21-0.81,0.21-1.29s-0.07-0.91-0.21-1.29c-0.14-0.38-0.34-0.7-0.59-0.96
			c-0.25-0.26-0.54-0.46-0.87-0.6c-0.33-0.14-0.69-0.21-1.08-0.21c-0.38,0-0.74,0.07-1.08,0.21c-0.33,0.14-0.62,0.34-0.87,0.6
			c-0.25,0.26-0.45,0.58-0.59,0.96c-0.14,0.38-0.21,0.81-0.21,1.29s0.07,0.91,0.21,1.29c0.14,0.38,0.34,0.7,0.59,0.96
			c0.25,0.26,0.54,0.46,0.87,0.6C100.29,19.68,100.64,19.75,101.03,19.75z"/>
		<path class="st0" d="M109.44,22.81V10.57h5.9c1.14,0,2.13,0.19,2.97,0.56c0.83,0.37,1.48,0.91,1.93,1.6
			c0.45,0.69,0.68,1.51,0.68,2.46s-0.23,1.76-0.68,2.45c-0.46,0.69-1.1,1.22-1.93,1.6c-0.83,0.38-1.82,0.57-2.97,0.57h-3.6
			l1.84-1.77v4.78H109.44z M113.57,18.49l-1.84-1.87h3.34c0.57,0,0.99-0.13,1.27-0.38c0.27-0.26,0.41-0.61,0.41-1.05
			c0-0.44-0.14-0.79-0.41-1.05c-0.27-0.26-0.7-0.38-1.27-0.38h-3.34l1.84-1.87V18.49z"/>
		<path class="st0" d="M120.32,22.81l5.35-12.25h4.06l5.35,12.25h-4.27l-3.95-10.29h1.61l-3.95,10.29H120.32z M123.51,20.68
			l1.05-2.97h5.63l1.05,2.97H123.51z"/>
		<path class="st0" d="M135.75,22.81V10.57h3.39l6.23,7.45h-1.57v-7.45h4.02v12.25h-3.39l-6.23-7.45h1.57v7.45H135.75z"/>
		<path class="st0" d="M153.87,19.7H160v3.11h-10.18V10.57h9.95v3.11h-5.9V19.7z M153.6,15.12h5.46v2.97h-5.46V15.12z"/>
		<path class="st0" d="M75.1,38.64c-0.99,0-1.9-0.15-2.74-0.46c-0.83-0.31-1.56-0.75-2.17-1.32c-0.61-0.57-1.09-1.25-1.43-2.03
			c-0.34-0.78-0.51-1.64-0.51-2.59c0-0.94,0.17-1.81,0.51-2.59c0.34-0.78,0.82-1.46,1.43-2.03c0.62-0.57,1.35-1.01,2.2-1.32
			c0.85-0.31,1.78-0.46,2.79-0.46c1.21,0,2.29,0.2,3.25,0.61c0.95,0.41,1.73,0.99,2.35,1.75l-2.64,2.33
			c-0.38-0.44-0.8-0.78-1.25-1.01c-0.45-0.23-0.95-0.34-1.5-0.34c-0.46,0-0.87,0.07-1.23,0.21c-0.37,0.14-0.68,0.34-0.94,0.61
			c-0.26,0.27-0.45,0.59-0.59,0.96c-0.14,0.37-0.21,0.8-0.21,1.28c0,0.45,0.07,0.87,0.21,1.25c0.14,0.38,0.34,0.7,0.59,0.97
			c0.26,0.27,0.56,0.48,0.92,0.62c0.36,0.15,0.75,0.22,1.2,0.22c0.47,0,0.92-0.08,1.36-0.24c0.44-0.16,0.92-0.43,1.42-0.81
			l2.31,2.83c-0.75,0.5-1.6,0.89-2.55,1.15C76.93,38.51,76,38.64,75.1,38.64z M76.85,36.56v-4.65h3.59v5.18L76.85,36.56z"/>
		<path class="st0" d="M80.88,38.36l5.35-12.25h4.06l5.35,12.25h-4.27l-3.95-10.29h1.61l-3.95,10.29H80.88z M84.06,36.23l1.05-2.97
			h5.63l1.05,2.97H84.06z"/>
		<path class="st0" d="M96.31,38.36V26.12h3.39l4.9,7.99h-1.78l4.76-7.99h3.39L111,38.36h-3.76l-0.03-6.58h0.59l-3.25,5.48h-1.82
			l-3.39-5.48h0.73v6.58H96.31z"/>
		<path class="st0" d="M112.99,38.36V26.12h4.13v12.25H112.99z"/>
		<path class="st0" d="M119.12,38.36V26.12h3.39l6.23,7.45h-1.57v-7.45h4.02v12.25h-3.39l-6.23-7.45h1.57v7.45H119.12z"/>
		<path class="st0" d="M139.53,38.64c-0.99,0-1.9-0.15-2.74-0.46c-0.83-0.31-1.56-0.75-2.17-1.32c-0.61-0.57-1.09-1.25-1.43-2.03
			c-0.34-0.78-0.51-1.64-0.51-2.59c0-0.94,0.17-1.81,0.51-2.59c0.34-0.78,0.82-1.46,1.43-2.03c0.62-0.57,1.35-1.01,2.2-1.32
			c0.85-0.31,1.78-0.46,2.79-0.46c1.21,0,2.29,0.2,3.25,0.61c0.95,0.41,1.73,0.99,2.35,1.75l-2.64,2.33
			c-0.38-0.44-0.8-0.78-1.25-1.01c-0.45-0.23-0.95-0.34-1.5-0.34c-0.46,0-0.87,0.07-1.23,0.21c-0.37,0.14-0.68,0.34-0.94,0.61
			c-0.26,0.27-0.45,0.59-0.59,0.96c-0.14,0.37-0.21,0.8-0.21,1.28c0,0.45,0.07,0.87,0.21,1.25c0.14,0.38,0.34,0.7,0.59,0.97
			c0.26,0.27,0.56,0.48,0.92,0.62c0.36,0.15,0.75,0.22,1.2,0.22c0.47,0,0.92-0.08,1.36-0.24c0.44-0.16,0.92-0.43,1.42-0.81
			l2.31,2.83c-0.75,0.5-1.6,0.89-2.55,1.15C141.36,38.51,140.43,38.64,139.53,38.64z M141.28,36.56v-4.65h3.59v5.18L141.28,36.56z"
			/>
	</g>
	<rect x="49.41" y="9.97" class="st0" width="1.5" height="26.95"/>
</g>
</svg>
