<?xml version="1.0" encoding="utf-8"?>
<!-- Generator: Adobe Illustrator 26.1.0, SVG Export Plug-In . SVG Version: 6.00 Build 0)  -->
<svg version="1.1" id="Layer_1" xmlns="http://www.w3.org/2000/svg" xmlns:xlink="http://www.w3.org/1999/xlink" x="0px" y="0px"
	 viewBox="0 0 51.6 50.04" style="enable-background:new 0 0 51.6 50.04;" xml:space="preserve">
<style type="text/css">
	.st0{fill:#14213D;}
</style>
<path class="st0" d="M38.02,33.53l-0.6,0.6l-4.38-4.37c5.75-7.01,5.35-17.41-1.19-23.95c-6.97-6.97-18.3-6.97-25.27,0
	c-6.96,6.96-6.96,18.3,0,25.27c6.55,6.55,16.94,6.94,23.95,1.19l4.38,4.37l-0.6,0.6l12.23,12.22l3.71-3.71L38.02,33.53z
	 M29.35,28.56c-5.59,5.59-14.67,5.59-20.26,0c-5.58-5.58-5.58-14.67,0-20.25c5.58-5.59,14.67-5.59,20.26,0
	C34.93,13.9,34.93,22.98,29.35,28.56z"/>
</svg>
