<?xml version="1.0" encoding="utf-8"?>
<!-- Generator: Adobe Illustrator 26.1.0, SVG Export Plug-In . SVG Version: 6.00 Build 0)  -->
<svg version="1.1" id="Layer_1" xmlns="http://www.w3.org/2000/svg" xmlns:xlink="http://www.w3.org/1999/xlink" x="0px" y="0px"
	 viewBox="0 0 51.6 50.04" style="enable-background:new 0 0 51.6 50.04;" xml:space="preserve">
<style type="text/css">
	.st0{fill:#202020;}
</style>
<path class="st0" d="M0.43,0.54c2.08,0.01,4.16,0.01,6.24,0.02c1.06,0,1.36,0.22,1.64,1.26c0.81,2.98,1.61,5.95,2.42,8.93
	c0.04,0.16,0.09,0.31,0.15,0.52c0.21,0,0.43,0,0.64,0c12.69,0,25.38,0,38.06,0.01c0.34,0,0.7,0.05,1,0.18
	c0.52,0.24,0.7,0.78,0.52,1.44c-0.88,3.3-1.77,6.6-2.65,9.89c-0.81,3.01-1.62,6.02-2.42,9.03c-0.67,2.5-2.37,3.81-4.97,3.81
	c-7.37,0-14.74,0-22.1,0c-0.46,0-0.92-0.04-1.44-0.07c0.26,0.94,0.5,1.87,0.77,2.79c0.02,0.07,0.16,0.14,0.25,0.16
	c0.14,0.03,0.3,0.01,0.44,0.01c7.43,0,14.87,0,22.3,0c3.08,0,5.56,2.51,5.53,5.54c-0.02,2.28-1.46,4.3-3.61,5.08
	c-2.14,0.78-4.52,0.14-6.02-1.61c-1.44-1.68-1.69-4.14-0.62-6.12c0.08-0.15,0.17-0.31,0.28-0.51c-4.62,0-9.18,0-13.8,0
	c0.51,0.86,0.84,1.74,0.93,2.71c0.28,2.94-2,5.57-5.09,5.85c-2.84,0.26-5.56-2.05-5.78-4.89c-0.17-2.23,0.68-3.96,2.55-5.18
	c0.31-0.2,0.26-0.39,0.18-0.65C14,32.03,12.16,25.3,10.32,18.57c-0.51-1.86-1.03-3.72-1.53-5.58C7.93,9.75,7.1,6.51,6.25,3.27
	C6.22,3.16,6.18,3.06,6.13,2.92c-1.91,0-3.8,0-5.7,0C0.43,2.13,0.43,1.33,0.43,0.54z M11.46,13.67c0.04,0.18,0.07,0.32,0.11,0.46
	c1.58,5.76,3.17,11.51,4.75,17.27c0.38,1.37,1.18,1.98,2.63,1.98c7.37,0,14.73,0,22.1,0c1.54,0,2.3-0.6,2.69-2.09
	c1.25-4.69,2.5-9.37,3.74-14.06c0.31-1.18,0.62-2.35,0.94-3.57C36.1,13.67,23.81,13.67,11.46,13.67z M41.38,47.16
	c1.73,0,3.12-1.38,3.13-3.11c0.01-1.73-1.41-3.16-3.15-3.15c-1.71,0.01-3.12,1.41-3.13,3.12C38.22,45.75,39.63,47.16,41.38,47.16z
	 M18.52,47.16c1.75,0,3.14-1.4,3.13-3.15c-0.01-1.72-1.41-3.11-3.13-3.11c-1.74,0-3.14,1.41-3.13,3.16
	C15.41,45.79,16.79,47.16,18.52,47.16z"/>
</svg>
