<?xml version="1.0" encoding="utf-8"?>
<!-- Generator: Adobe Illustrator 26.1.0, SVG Export Plug-In . SVG Version: 6.00 Build 0)  -->
<svg version="1.1" id="Layer_1" xmlns="http://www.w3.org/2000/svg" xmlns:xlink="http://www.w3.org/1999/xlink" x="0px" y="0px"
	 viewBox="0 0 51.6 50.04" style="enable-background:new 0 0 51.6 50.04;" xml:space="preserve">
<style type="text/css">
	.st0{fill:#202020;}
</style>
<g>
	<path class="st0" d="M1.41,1.66c0-0.35,0-0.7,0-1.05c0.35,0,0.7,0,1.05,0C2.77,0.91,3.08,1.2,3.38,1.5
		C7.14,5.26,10.9,9.02,14.66,12.8c0.14,0.14,0.35,0.3,0.37,0.47c0.03,0.27,0.01,0.6-0.13,0.82c-0.18,0.29-0.53,0.34-0.85,0.17
		c-0.15-0.08-0.28-0.2-0.41-0.32c-0.9-0.9-1.8-1.8-2.7-2.69c-0.1-0.1-0.2-0.18-0.32-0.28c-0.52,0.73-0.79,1.5-0.83,2.35
		c-0.1,2.02,1.12,3.88,2.95,4.56c1.86,0.69,3.95,0.11,5.19-1.45c1.23-1.54,1.33-3.69,0.25-5.34c-1.1-1.68-3.11-2.44-5.08-1.89
		c-0.32,0.09-0.52,0.02-0.75-0.21c-1.01-1.03-2.04-2.05-3.06-3.07C8.98,5.61,8.65,5.3,8.35,4.97C8.26,4.88,8.23,4.74,8.17,4.62
		C8.3,4.57,8.42,4.49,8.55,4.47c0.3-0.03,0.6-0.03,0.9-0.03c4.89,0,9.78,0.01,14.67-0.01c1.36-0.01,2.44,0.45,3.4,1.41
		c6.98,6.99,13.96,13.96,20.94,20.92c0.77,0.77,1.5,1.55,1.75,2.65c0,0.38,0,0.76,0,1.14c-0.26,1.1-0.98,1.88-1.75,2.65
		c-4.85,4.82-9.68,9.66-14.51,14.51c-0.76,0.76-1.53,1.46-2.61,1.72c-0.38,0-0.76,0-1.14,0c-1.08-0.25-1.86-0.95-2.62-1.72
		c-2.87-2.9-5.76-5.78-8.65-8.66c-4.14-4.14-8.28-8.29-12.43-12.42c-0.8-0.8-1.28-1.73-1.28-2.87c0-5.18-0.01-10.35,0.02-15.53
		c0-0.57,0.2-1.15,0.41-1.69c0.13-0.32,0.12-0.48-0.12-0.72C4.15,4.44,2.78,3.05,1.41,1.66z"/>
</g>
</svg>
