<?xml version="1.0" encoding="utf-8"?>
<!-- Generator: Adobe Illustrator 26.1.0, SVG Export Plug-In . SVG Version: 6.00 Build 0)  -->
<svg version="1.1" id="Layer_1" xmlns="http://www.w3.org/2000/svg" xmlns:xlink="http://www.w3.org/1999/xlink" x="0px" y="0px"
	 viewBox="0 0 51.6 50.04" style="enable-background:new 0 0 51.6 50.04;" xml:space="preserve">
<path d="M24.35,0.27c0.97,0,1.93,0,2.9,0c0.65,0.08,1.31,0.14,1.96,0.24c4.88,0.69,9.19,2.64,12.89,5.9
	c4.35,3.84,7.07,8.62,8.07,14.35c0.16,0.93,0.26,1.87,0.38,2.81c0,0.97,0,1.93,0,2.9c-0.03,0.17-0.07,0.34-0.09,0.51
	c-0.12,0.89-0.19,1.79-0.35,2.68c-0.94,4.93-3.18,9.19-6.71,12.75c-3.7,3.73-8.14,6.08-13.33,6.98c-0.93,0.16-1.88,0.26-2.81,0.38
	c-0.97,0-1.93,0-2.9,0c-0.65-0.08-1.31-0.14-1.96-0.24c-4.88-0.69-9.19-2.64-12.89-5.9c-4.35-3.84-7.07-8.62-8.07-14.35
	c-0.16-0.93-0.26-1.87-0.38-2.81c0-0.97,0-1.93,0-2.9c0.03-0.17,0.07-0.34,0.09-0.51c0.12-0.89,0.19-1.79,0.35-2.68
	c0.94-4.93,3.18-9.19,6.71-12.75c3.7-3.73,8.14-6.08,13.33-6.98C22.47,0.49,23.41,0.4,24.35,0.27z M19.96,27.45
	c-5.69-4.1-5.66-11.35-2.03-15.44c3.84-4.33,10.31-4.85,14.58-1.16c2.3,1.98,3.58,4.5,3.68,7.54c0.12,3.78-1.47,6.76-4.53,9.05
	c2.66,1.02,4.91,2.53,6.77,4.6c1.87,2.08,3.13,4.48,3.86,7.21c7.05-7.87,7.79-21.57-1.78-30.36c-9.32-8.56-24.06-7.34-31.82,2.57
	C0.97,21.3,3.83,33.47,9.33,39.21c0.7-2.71,1.98-5.1,3.84-7.17C15.04,29.98,17.28,28.47,19.96,27.45z M26.2,46.87
	c0.52-0.04,1.44-0.09,2.35-0.2c4.13-0.51,7.8-2.12,11.02-4.73c0.11-0.09,0.2-0.32,0.17-0.47c-1.13-7.9-8.46-13.27-16.29-11.94
	c-6.04,1.03-10.71,5.82-11.59,11.94c-0.02,0.16,0.08,0.4,0.21,0.5C16.08,45.19,20.67,46.8,26.2,46.87z M25.82,26.32
	c4.14-0.02,7.5-3.37,7.5-7.5c0.01-4.13-3.4-7.53-7.54-7.52c-4.14,0.01-7.55,3.45-7.5,7.55C18.33,23,21.7,26.34,25.82,26.32z"/>
</svg>
